<svg width="62" height="63" viewBox="0 0 62 63" fill="none" xmlns="http://www.w3.org/2000/svg">
<path d="M31 51C19.9674 51 11 42.0326 11 31C11 19.9674 19.9674 11 31 11C42.0326 11 51 19.9674 51 31C51 31.7628 50.3674 32.3953 49.6047 32.3953C48.8419 32.3953 48.2093 31.7628 48.2093 31C48.2093 21.5116 40.4884 13.7907 31 13.7907C21.5116 13.7907 13.7907 21.5116 13.7907 31C13.7907 40.4884 21.5116 48.2093 31 48.2093C31.7628 48.2093 32.3953 48.8419 32.3953 49.6047C32.3953 50.3674 31.7628 51 31 51Z" fill="url(#paint0_linear_215_592)"/>
<path d="M25.4191 49.1396H23.5586C22.7958 49.1396 22.1633 48.507 22.1633 47.7442C22.1633 46.9814 22.7586 46.3675 23.5214 46.3489C20.6005 36.3768 20.6005 25.6233 23.5214 15.6512C22.7772 15.6326 22.1633 15.0186 22.1633 14.2559C22.1633 13.4931 22.7958 12.8605 23.5586 12.8605H25.4191C25.8656 12.8605 26.2935 13.0838 26.554 13.4372C26.8144 13.8093 26.8889 14.2744 26.74 14.7023C23.2424 25.214 23.2424 36.8047 26.74 47.3163C26.8889 47.7442 26.8144 48.2093 26.554 48.5814C26.2935 48.9535 25.8656 49.1396 25.4191 49.1396Z" fill="url(#paint1_linear_215_592)"/>
<path d="M39.2984 32.3954C38.5356 32.3954 37.903 31.7628 37.903 31C37.903 25.4557 37.01 19.9674 35.2612 14.7022C35.0193 13.9767 35.41 13.1766 36.1356 12.9348C36.8612 12.6929 37.6612 13.0837 37.903 13.8092C39.7449 19.3534 40.6937 25.1395 40.6937 31C40.6937 31.7628 40.0612 32.3954 39.2984 32.3954Z" fill="url(#paint2_linear_215_592)"/>
<path d="M31 40.6926C25.7907 40.6926 20.6372 39.9484 15.6512 38.4786C15.6326 39.2228 15.0186 39.8368 14.2558 39.8368C13.493 39.8368 12.8605 39.2042 12.8605 38.4414V36.581C12.8605 36.1344 13.0837 35.7065 13.4372 35.4461C13.8093 35.1856 14.2744 35.1112 14.7024 35.26C19.9675 37.0089 25.4558 37.9019 31 37.9019C31.7628 37.9019 32.3954 38.5345 32.3954 39.2972C32.3954 40.06 31.7628 40.6926 31 40.6926Z" fill="url(#paint3_linear_215_592)"/>
<path d="M47.7455 26.8138C47.5967 26.8138 47.4478 26.7952 47.299 26.7394C36.7874 23.2417 25.1966 23.2417 14.685 26.7394C13.9594 26.9813 13.1594 26.5905 12.9175 25.8649C12.6757 25.1394 13.0664 24.3393 13.792 24.0975C24.8803 20.3951 37.085 20.3951 48.1548 24.0975C48.8804 24.3393 49.2711 25.1394 49.0292 25.8649C48.8804 26.4417 48.3222 26.8138 47.7455 26.8138Z" fill="url(#paint4_linear_215_592)"/>
<path d="M42.5349 49.8837C38.4791 49.8837 35.186 46.5907 35.186 42.5349C35.186 38.4791 38.4791 35.186 42.5349 35.186C46.5907 35.186 49.8837 38.4791 49.8837 42.5349C49.8837 46.5907 46.5907 49.8837 42.5349 49.8837ZM42.5349 37.9767C40.0232 37.9767 37.9767 40.0232 37.9767 42.5349C37.9767 45.0465 40.0232 47.093 42.5349 47.093C45.0465 47.093 47.093 45.0465 47.093 42.5349C47.093 40.0232 45.0465 37.9767 42.5349 37.9767Z" fill="url(#paint5_linear_215_592)"/>
<path d="M49.6037 51C49.2502 51 48.8967 50.8697 48.6177 50.5907L46.7572 48.7302C46.2177 48.1907 46.2177 47.2975 46.7572 46.7579C47.2967 46.2184 48.1897 46.2184 48.7293 46.7579L50.5897 48.6184C51.1293 49.1579 51.1293 50.0511 50.5897 50.5907C50.3107 50.8697 49.9572 51 49.6037 51Z" fill="url(#paint6_linear_215_592)"/>
<path d="M60 31.5C60 47.784 47.008 61 31 61C14.992 61 5.219 44.598 5.219 44.598M5.219 44.598L15.05 48.2167M5.219 44.598V54.1167M2 31.5C2 15.216 14.876 2 31 2C50.343 2 58.4182 18.5 58.4182 18.5M58.4182 18.5L57.5 9M58.4182 18.5L50.3333 14.2917" stroke="url(#paint7_linear_215_592)" stroke-width="3" stroke-linecap="round" stroke-linejoin="round"/>
<defs>
<linearGradient id="paint0_linear_215_592" x1="31" y1="11" x2="31" y2="51" gradientUnits="userSpaceOnUse">
<stop stop-color="white"/>
<stop offset="1" stop-color="#451FAE" stop-opacity="0.624963"/>
</linearGradient>
<linearGradient id="paint1_linear_215_592" x1="24.0733" y1="12.8605" x2="24.0733" y2="49.1396" gradientUnits="userSpaceOnUse">
<stop stop-color="white"/>
<stop offset="1" stop-color="#451FAE" stop-opacity="0.624963"/>
</linearGradient>
<linearGradient id="paint2_linear_215_592" x1="37.9416" y1="12.8632" x2="37.9416" y2="32.3954" gradientUnits="userSpaceOnUse">
<stop stop-color="white"/>
<stop offset="1" stop-color="#451FAE" stop-opacity="0.624963"/>
</linearGradient>
<linearGradient id="paint3_linear_215_592" x1="22.6279" y1="35.1842" x2="22.6279" y2="40.6926" gradientUnits="userSpaceOnUse">
<stop stop-color="white"/>
<stop offset="1" stop-color="#451FAE" stop-opacity="0.624963"/>
</linearGradient>
<linearGradient id="paint4_linear_215_592" x1="30.9734" y1="21.3207" x2="30.9734" y2="26.8138" gradientUnits="userSpaceOnUse">
<stop stop-color="white"/>
<stop offset="1" stop-color="#451FAE" stop-opacity="0.624963"/>
</linearGradient>
<linearGradient id="paint5_linear_215_592" x1="42.5349" y1="35.186" x2="42.5349" y2="49.8837" gradientUnits="userSpaceOnUse">
<stop stop-color="white"/>
<stop offset="1" stop-color="#451FAE" stop-opacity="0.624963"/>
</linearGradient>
<linearGradient id="paint6_linear_215_592" x1="48.6735" y1="46.3533" x2="48.6735" y2="51" gradientUnits="userSpaceOnUse">
<stop stop-color="white"/>
<stop offset="1" stop-color="#451FAE" stop-opacity="0.624963"/>
</linearGradient>
<linearGradient id="paint7_linear_215_592" x1="31" y1="2" x2="31" y2="61" gradientUnits="userSpaceOnUse">
<stop stop-color="white"/>
<stop offset="1" stop-color="#451FAE" stop-opacity="0.624963"/>
</linearGradient>
</defs>
</svg>
