<svg width="280" height="280" viewBox="0 0 280 280" fill="none" xmlns="http://www.w3.org/2000/svg">
<g clip-path="url(#clip0_46_50)">
<mask id="mask0_46_50" style="mask-type:luminance" maskUnits="userSpaceOnUse" x="0" y="0" width="280" height="280">
<path d="M280 0H0V280H280V0Z" fill="white"/>
</mask>
<g mask="url(#mask0_46_50)">
<path d="M140 36C125.148 36 110.904 41.9 100.402 52.402C89.9 62.9041 84 92 84 92C84 92 73.7994 133.45 94.3067 162.386C99.8575 170.219 107.327 176.494 116 180.61V199.01H112C92.9044 199.01 74.5909 206.596 61.0883 220.098C47.5857 233.601 40 251.914 40 271.01V280.01H240V271.01C240 251.914 232.414 233.601 218.912 220.098C205.409 206.596 187.096 199.01 168 199.01H164V180.62C172.673 176.504 180.142 170.229 185.693 162.396C206.511 133.021 196 92 196 92C196 92 190.1 62.9041 179.598 52.402C169.096 41.9 154.852 36 140 36Z" fill="#556777"/>
<path d="M116 180.61V188.61C123.499 192.17 131.699 194.011 140 194C148.59 194 156.73 192.07 164 188.61V180.61C156.501 184.17 148.301 186.011 140 186C131.699 186.011 123.499 184.17 116 180.61Z" fill="black" fill-opacity="0.1"/>
<path d="M140.5 235.83C167.84 235.83 190 222.63 190 206.35C190 204.98 189.84 203.65 189.54 202.33C204.17 206.922 216.953 216.063 226.029 228.423C235.105 240.782 239.999 255.716 240 271.05V280H40V271.05C40.0003 255.524 45.0171 240.414 54.3028 227.971C63.5886 215.528 76.6462 206.419 91.53 202C91.1768 203.423 90.9988 204.884 91 206.35C91 222.63 113.16 235.83 140.5 235.83Z" fill="#2E3943"/>
</g>
</g>
<defs>
<clipPath id="clip0_46_50">
<rect width="280" height="280" fill="white"/>
</clipPath>
</defs>
</svg>
