<svg width="96" height="112" viewBox="0 0 96 112" fill="none" xmlns="http://www.w3.org/2000/svg">
<path d="M42.1666 61.1667L71.5416 31.7917L65.7083 25.9584L42.1666 49.5L30.2916 37.625L24.4583 43.4584L42.1666 61.1667ZM48 83.6667C42.2361 83.6667 36.8194 82.573 31.75 80.3855C26.6805 78.198 22.2708 75.2292 18.5208 71.4792C14.7708 67.7292 11.8021 63.3195 9.61456 58.25C7.42706 53.1806 6.33331 47.7639 6.33331 42C6.33331 36.2362 7.42706 30.8195 9.61456 25.75C11.8021 20.6806 14.7708 16.2709 18.5208 12.5209C22.2708 8.77087 26.6805 5.80212 31.75 3.61462C36.8194 1.42712 42.2361 0.333374 48 0.333374C53.7639 0.333374 59.1805 1.42712 64.25 3.61462C69.3194 5.80212 73.7291 8.77087 77.4791 12.5209C81.2291 16.2709 84.1979 20.6806 86.3854 25.75C88.5729 30.8195 89.6667 36.2362 89.6667 42C89.6667 47.7639 88.5729 53.1806 86.3854 58.25C84.1979 63.3195 81.2291 67.7292 77.4791 71.4792C73.7291 75.2292 69.3194 78.198 64.25 80.3855C59.1805 82.573 53.7639 83.6667 48 83.6667ZM48 75.3334C57.3055 75.3334 65.1875 72.1042 71.6458 65.6459C78.1041 59.1875 81.3333 51.3056 81.3333 42C81.3333 32.6945 78.1041 24.8125 71.6458 18.3542C65.1875 11.8959 57.3055 8.66671 48 8.66671C38.6944 8.66671 30.8125 11.8959 24.3541 18.3542C17.8958 24.8125 14.6666 32.6945 14.6666 42C14.6666 51.3056 17.8958 59.1875 24.3541 65.6459C30.8125 72.1042 38.6944 75.3334 48 75.3334Z" fill="#23C16B"/>
<g filter="url(#filter0_f_146_7535)">
<ellipse cx="48" cy="99" rx="42" ry="7" fill="#23C16B" fill-opacity="0.67"/>
</g>
<defs>
<filter id="filter0_f_146_7535" x="0" y="86" width="96" height="26" filterUnits="userSpaceOnUse" color-interpolation-filters="sRGB">
<feFlood flood-opacity="0" result="BackgroundImageFix"/>
<feBlend mode="normal" in="SourceGraphic" in2="BackgroundImageFix" result="shape"/>
<feGaussianBlur stdDeviation="3" result="effect1_foregroundBlur_146_7535"/>
</filter>
</defs>
</svg>
