<svg width="100" height="100" viewBox="0 0 100 100" fill="none" xmlns="http://www.w3.org/2000/svg">
<path d="M68.7892 31.2491L41.332 58.7063L26.3743 43.7902L20.4995 49.665L41.332 70.4975L74.664 37.1655L68.7892 31.2491ZM49.665 8C26.6659 8 8 26.6659 8 49.665C8 72.6641 26.6659 91.33 49.665 91.33C72.6641 91.33 91.33 72.6641 91.33 49.665C91.33 26.6659 72.6641 8 49.665 8ZM49.665 82.997C31.2491 82.997 16.333 68.0809 16.333 49.665C16.333 31.2491 31.2491 16.333 49.665 16.333C68.0809 16.333 82.997 31.2491 82.997 49.665C82.997 68.0809 68.0809 82.997 49.665 82.997Z" fill="#23C16B"/>
</svg>
